Motion_pl06
version=1
nRows=16
nColumns=43
inDegrees=yes
endheader
time	pelvis_tilt	pelvis_list	pelvis_rotation	pelvis_tx	pelvis_ty	pelvis_tz	hip_flexion_r	hip_adduction_r	hip_rotation_r	knee_angle_r	ankle_angle_r	subtalar_angle_r	mtp_angle_r	hip_flexion_l	hip_adduction_l	hip_rotation_l	knee_angle_l	ankle_angle_l	subtalar_angle_l	mtp_angle_l	lumbar_extension	lumbar_bending	lumbar_rotation	neck_flexion	neck_lateral_bending	neck_rotation	arm_flex_r	arm_add_r	arm_rot_r	elbow_flex_r	pro_sup_r	wrist_flex_r	wrist_dev_r	hand_finger_flex_r	arm_flex_l	arm_add_l	arm_rot_l	elbow_flex_l	pro_sup_l	wrist_flex_l	wrist_dev_l	hand_finger_flex_l
      1.45750000	      4.16697825	     -9.08220073	     95.57448572	      0.00109798	      0.56453762	      0.36692494	     78.99731260	    -14.39338890	     -8.23256131	   -113.51016980	     39.23044479	      5.79087688	     -3.10284024	     83.46366944	    -10.49946915	      0.88522507	   -115.34072026	     41.47716183	      8.67707853	    -12.99916992	    -45.75561070	      0.78771146	      0.76676680	     10.68058262	      2.50611975	      4.08904592	     95.38100888	    -43.76135403	     61.33691807	     76.66506906	    103.10896671	    -19.22272297	     -8.64027578	     44.10004748	    106.26704581	    -46.25912027	     78.55538613	     78.45509697	    115.09110448	    -17.92786347	      3.51765235	     90.00021046
      1.46000000	      4.21696332	     -9.21036686	     95.56983198	      0.00109312	      0.56798293	      0.36584466	     78.62195414	    -14.32997239	     -8.39831051	   -112.97104266	     39.12527251	      5.78379513	     -2.95662411	     83.12012361	    -10.56476979	      0.84752330	   -114.83200143	     41.36332597	      8.72298941	    -12.85449850	    -45.44025355	      0.79526618	      0.87361341	     10.37201404	      2.57516162	      4.07947282	     93.89016193	    -44.23461129	     60.52855839	     76.76803557	    103.28387423	    -19.16294863	     -8.39144954	     44.15061205	    104.71278552	    -46.60238699	     77.65047694	     78.39607913	    115.32942166	    -17.86440445	      3.64017245	     90.00021046
      1.46250000	      4.27472461	     -9.34514284	     95.55736026	      0.00105360	      0.57142768	      0.36474876	     78.25257259	    -14.26449295	     -8.57218303	   -112.43234156	     39.00479721	      5.78333444	     -2.81078912	     82.77924618	    -10.62962946	      0.81565747	   -114.32078301	     41.23747142	      8.77311516	    -12.71326588	    -45.11904756	      0.79966740	      1.01319794	     10.09931242	      2.66011443	      4.03607960	     92.34589710	    -44.74393477	     59.65126680	     76.89156286	    103.46892245	    -19.11387280	     -8.14370312	     44.18115847	    103.09927736	    -46.89005956	     76.66900050	     78.29674236	    115.58697789	    -17.81459835	      3.75264846	     90.00021046
      1.46500000	      4.39530104	     -9.68905822	     95.57257030	      0.00099106	      0.57426191	      0.36361971	     78.11835984	    -14.19721244	     -8.77948891	   -111.90646579	     38.92443330	      5.75606333	     -2.44270230	     82.73627775	    -10.69390577	      0.83731372	   -113.86928725	     41.17375867	      8.86564285	    -12.36236559	    -44.49582673	      0.82003043	      1.41931421	      9.57573652	      2.84950642	      3.74602228	     90.55712144	    -45.65282206	     58.47098039	     77.30882565	    104.40335574	    -18.47485367	     -7.77926155	     44.31553333	    101.08626055	    -46.70661411	     75.18405807	     77.95048371	    116.68515287	    -17.28246572	      3.82301610	     90.00021046
      1.46750000	      4.41918603	     -9.66103608	     95.55469517	      0.00108505	      0.57817197	      0.36254032	     77.56448622	    -14.11512517	     -8.93598806	   -111.33329242	     38.70216356	      5.77479030	     -2.36935087	     82.20347486	    -10.77700893	      0.78542102	   -113.32464667	     40.94093524	      8.86828280	    -12.29794151	    -44.42604555	      0.80077082	      1.45183454	      9.56120696	      2.93386492	      3.76448935	     89.11665393	    -46.02310590	     57.69508318	     77.35013905	    104.20110375	    -18.69479031	     -7.59948541	     44.16571220	     99.79674998	    -47.16161885	     74.54622742	     77.93365301	    116.47461457	    -17.36238233	      3.84517631	     90.00021046
      1.47000000	      4.44594428	     -9.70372534	     95.54821386	      0.00110778	      0.58185061	      0.36136950	     77.08357052	    -14.05088738	     -9.09301620	   -110.77954616	     38.60603048	      5.76422599	     -2.27479862	     81.74863774	    -10.84865638	      0.72211097	   -112.79213216	     40.85356690	      8.91384781	    -12.21267318	    -44.22401077	      0.78595414	      1.54530280	      9.32782265	      3.04573015	      3.77204301	     87.52788436	    -46.46790679	     56.79715711	     77.42375607	    104.17778838	    -18.83083493	     -7.40974543	     44.07831040	     98.24084936	    -47.45262789	     73.64136796	     77.79224502	    116.47901732	    -17.52884524	      3.93862345	     90.00021046
      1.47250000	      4.56238646	    -10.02737050	     95.56341993	      0.00101112	      0.58477063	      0.36018950	     76.91836634	    -13.99384175	     -9.30793377	   -110.23581571	     38.56801974	      5.75107124	     -1.99021191	     81.66173112	    -10.91664615	      0.72098384	   -112.32930723	     40.82989183	      9.01130424	    -11.96585834	    -43.63742179	      0.79168609	      1.98818654	      8.90805162	      3.27991574	      3.44066126	     85.54668208	    -47.41393956	     55.40435568	     77.84399680	    105.04886755	    -18.29841471	     -7.15198993	     44.12262558	     96.23114245	    -47.16016128	     72.16472423	     77.38203051	    117.52726997	    -17.35801350	      3.99671037	     90.00021046
      1.47500000	      4.58166200	     -9.95289971	     95.53542068	      0.00106892	      0.58860626	      0.35904684	     76.36170676	    -13.92608131	     -9.45438456	   -109.72315017	     38.20421548	      5.81969202	     -1.97674212	     81.10370935	    -10.99799583	      0.68245592	   -111.81359546	     40.49888384	      9.02727014	    -11.95927863	    -43.60792413	      0.77765139	      2.01130231	      8.74818771	      3.32318315	      3.44768369	     84.16006431	    -47.78307432	     54.73700560	     77.89583597	    104.84876568	    -18.52465297	     -7.01336196	     43.99979165	     95.01713740	    -47.67384707	     71.68660435	     77.44403019	    117.30279831	    -17.46997614	      4.01472073	     90.00021046
      1.47750000	      4.60113501	     -9.95538505	     95.53884226	      0.00110888	      0.59248130	      0.35785277	     75.81031965	    -13.86531013	     -9.61870309	   -109.11358517	     38.20249812	      5.77053400	     -1.90538951	     80.57127112	    -11.07041697	      0.59933014	   -111.24335443	     40.50155059	      9.03075674	    -11.90029024	    -43.46791720	      0.76528836	      2.07201870	      8.63410710	      3.41499994	      3.49509429	     82.44865538	    -48.10356493	     53.66675907	     77.87862858	    104.76193262	    -18.76952254	     -6.83195124	     43.88316477	     93.39584559	    -47.94461826	     70.67587932	     77.24058272	    117.22073065	    -17.76314221	      4.12694597	     90.00021046
      1.48000000	      4.72500163	    -10.30847734	     95.57737723	      0.00102504	      0.59544270	      0.35666921	     75.66797387	    -13.79671005	     -9.82602102	   -108.56037381	     38.18464732	      5.79924650	     -1.64566623	     80.50493612	    -11.11737029	      0.59863979	   -110.73118225	     40.49344572	      9.13670950	    -11.70479620	    -42.87197284	      0.78052414	      2.55099129	      8.35007819	      3.66414599	      3.09542842	     80.19345595	    -49.04592302	     51.88766411	     78.32805659	    105.88129215	    -18.10159014	     -6.64066163	     43.95548379	     91.30272105	    -47.51904497	     69.01287875	     76.75645647	    118.55376762	    -17.71797713	      4.18434256	     90.00021046
      1.48250000	      4.73824978	    -10.20958986	     95.55101233	      0.00105630	      0.59936581	      0.35552887	     75.08878411	    -13.74036635	     -9.96022360	   -108.02561232	     37.72059169	      5.89510418	     -1.64429560	     79.92139388	    -11.19160691	      0.56026670	   -110.20666153	     40.13436859	      9.16074492	    -11.70882755	    -42.86094137	      0.77607444	      2.56865444	      8.17168162	      3.66947647	      3.10134933	     78.74112280	    -49.29699963	     51.11850128	     78.26568909	    105.70036023	    -18.32070228	     -6.46970096	     43.81393742	     90.05254285	    -47.98013028	     68.51971392	     76.71138731	    118.34662636	    -17.82579659	      4.22539453	     90.00021046
      1.48500000	      4.74061523	    -10.20359985	     95.56016863	      0.00104770	      0.60323153	      0.35428159	     74.53319516	    -13.69141984	    -10.10029876	   -107.42052317	     37.75445812	      5.84474809	     -1.56805773	     79.36742834	    -11.23537231	      0.45555525	   -109.62692632	     40.17444020	      9.15604711	    -11.65464004	    -42.73775186	      0.76982201	      2.61128097	      8.06655394	      3.73696959	      3.15255132	     76.95775642	    -49.55820882	     49.93944479	     78.24492407	    105.67379923	    -18.52791206	     -6.31794544	     43.69358885	     88.37924669	    -48.25797749	     67.43982483	     76.53301968	    118.31637702	    -18.14535264	      4.34601090	     90.00021046
      1.48750000	      4.76197986	    -10.22098637	     95.56094832	      0.00094772	      0.60692910	      0.35308847	     74.06738874	    -13.66537440	    -10.23270704	   -106.88786655	     37.43757198	      5.96047332	     -1.52483036	     78.88779511	    -11.28432241	      0.38721809	   -109.07600702	     39.96228407	      9.22817139	    -11.63167683	    -42.57494760	      0.77619609	      2.69165797	      7.84476257	      3.75334448	      3.10748711	     75.20602714	    -49.89360087	     48.81288509	     78.26641050	    105.83168286	    -18.58721777	     -6.20498095	     43.64692460	     86.73271553	    -48.50206225	     66.42086306	     76.40431740	    118.55352880	    -18.41833888	      4.46423855	     90.00021046
      1.49000000	      4.88903560	    -10.57791829	     95.60286491	      0.00096987	      0.61002906	      0.35193092	     73.92727242	    -13.57241616	    -10.43069542	   -106.28804204	     37.33474755	      5.98699759	     -1.13642530	     78.80734955	    -11.33298098	      0.39336856	   -108.51334221	     39.91227164	      9.20904228	    -11.40965421	    -42.00626688	      0.77817331	      3.19470154	      7.72872170	      3.97213664	      2.61214952	     72.48037234	    -50.63367983	     46.19743990	     78.70480084	    107.54000454	    -17.21727849	     -5.92825408	     43.54312354	     84.74015748	    -47.94340519	     64.71284013	     75.86144173	    120.45790365	    -17.76790940	      4.44937254	     90.00021046
      1.49250000	      4.84426504	    -10.48180359	     95.58958563	      0.00087473	      0.61390232	      0.35069574	     73.34982399	    -13.55961116	    -10.51407365	   -105.76027297	     37.10896945	      6.02070403	     -1.11171367	     78.17193024	    -11.35156904	      0.27415938	   -107.95921403	     39.74170079	      9.27272723	    -11.40333168	    -41.99664369	      0.75014862	      3.13747639	      7.54536550	      4.02552231	      2.75098794	     70.96865321	    -50.82777883	     45.41056127	     78.63681227	    107.28968671	    -17.49659579	     -5.82005210	     43.35270650	     83.30399894	    -48.42723019	     63.99627740	     75.87365260	    120.09743416	    -18.04279881	      4.54429716	     90.00021046
      1.49500000	      4.81792131	    -10.46559651	     95.58954330	      0.00078110	      0.61784307	      0.34950673	     72.81448316	    -13.53535783	    -10.59968793	   -105.15275998	     36.96995512	      6.08376416	     -1.06296568	     77.58866941	    -11.37570894	      0.14809661	   -107.33486699	     39.72073679	      9.26404331	    -11.37632130	    -41.89830858	      0.75492402	      3.09674933	      7.48780416	      3.94409872	      2.83577136	     69.26142501	    -50.86016172	     44.27840179	     78.44833179	    107.19790744	    -17.72326517	     -5.70181004	     43.20524890	     81.63044533	    -48.75024962	     62.95814171	     75.69107549	    120.06156577	    -18.40108917	      4.72454191	     90.00021046
